<svg width="327" height="512" viewBox="0 0 327 512" fill="none" xmlns="http://www.w3.org/2000/svg">
<path d="M164.265 91.5V0C64.2653 0 16.9309 82.3333 5.76367 123.5C-45.2363 299.5 258.764 502 270.264 508.5C279.464 513.7 286.764 509.333 289.264 506.5C296.931 494 314.365 466.2 322.765 455C331.165 443.8 322.598 435 317.265 432C282.065 414.4 200.598 338.667 164.265 303C31.0646 149.4 108.765 98 164.265 91.5Z" fill="#FF7EAF"/>
<path d="M275.002 511C261.402 507.4 194.502 452.833 163.002 426C172.502 418 209.002 382 228.002 362C231.502 368 307.511 426.505 318.002 432.5C328.502 438.5 326.451 449.735 325.502 451C324.002 453 297.502 494.5 291.002 504C285.802 511.6 278.169 511.833 275.002 511Z" fill="#E62E71"/>
<path d="M162.026 91.5V0C262.026 0 309.36 82.3333 320.527 123.5C371.527 299.5 67.5273 502 56.0273 508.5C46.8273 513.7 39.5273 509.333 37.0273 506.5C29.3604 494 11.9265 466.2 3.52645 455C-4.87355 443.8 3.69312 435 9.02645 432C44.2265 414.4 125.693 338.667 162.026 303C295.226 149.4 217.526 98 162.026 91.5Z" fill="#FF4D90"/>
</svg>
